<svg width="88" height="93" viewBox="0 0 88 93" fill="none" xmlns="http://www.w3.org/2000/svg">
<g id="Group">
<path id="Vector" d="M13.4337 17.4563L13.4337 75.1983C13.4337 77.3519 15.1796 79.0978 17.3333 79.0978H75.0753C77.2289 79.0978 78.9748 77.3519 78.9748 75.1983V17.4563C78.9748 15.3027 77.2289 13.5568 75.0753 13.5568H17.3333C15.1796 13.5568 13.4337 15.3027 13.4337 17.4563Z" fill="#7CA304"/>
<g id="Group_2">
<g id="Vector_2" style="mix-blend-mode:multiply" opacity="0.29">
<path d="M13.2127 43.2969C9.83315 42.6762 5.90764 40.8174 5.90764 40.8174L13.8496 38.0195C13.8496 38.0195 7.95814 39.1796 4.82878 36.7847C1.69942 34.3897 0.165615 32.8884 0.269602 32.3327C0.376838 31.7771 12.9658 32.5212 12.9658 32.5212C12.9658 32.5212 6.56731 30.4382 4.25685 27.5038C1.94639 24.5695 2.6808 20.4067 3.20398 20.2215C3.72717 20.033 6.72979 23.4679 9.4497 24.7449C12.1729 26.0253 13.6254 26.2105 13.6254 26.2105C13.6254 26.2105 11.4449 20.9429 12.3353 19.1361C13.2257 17.3294 16.9855 13.3486 17.6127 13.4396C18.2366 13.5306 19.5949 18.7917 20.4106 20.098C21.2262 21.4044 22.6268 22.8439 22.6268 22.8439C22.6268 22.8439 23.4197 19.9225 25.5742 18.5675C27.7287 17.2124 29.1715 16.7607 29.1715 16.7607C29.1715 16.7607 29.5679 22.3207 29.8636 24.8262C30.1593 27.3349 30.4193 30.058 28.9797 33.3661C27.5402 36.6742 19.1627 44.3822 13.2095 43.2904L13.2127 43.2969Z" fill="#3A1D1C"/>
</g>
<path id="Vector_3" d="M13.3915 45.8967C9.99243 45.4678 5.99543 43.8138 5.99543 43.8138L13.801 40.5024C13.801 40.5024 7.97118 42.0297 4.74434 39.7843C1.51749 37.5388 -0.0813079 36.1057 0.00318146 35.5338C0.0844213 34.9619 12.6863 34.9716 12.6863 34.9716C12.6863 34.9716 6.2099 33.2363 3.77596 30.3929C1.34201 27.5495 1.89444 23.2796 2.41113 23.0586C2.92457 22.8376 6.07017 26.1457 8.84207 27.2831C11.614 28.4204 13.073 28.5244 13.073 28.5244C13.073 28.5244 10.6683 23.3056 11.4807 21.4176C12.2931 19.5295 15.8742 15.2661 16.5014 15.3213C17.1285 15.3766 18.7111 20.6377 19.582 21.918C20.4529 23.1983 21.9119 24.5729 21.9119 24.5729C21.9119 24.5729 22.5781 21.5605 24.6708 20.056C26.7636 18.5514 28.1836 18.0087 28.1836 18.0087C28.1836 18.0087 28.8173 23.6305 29.2203 26.1587C29.6232 28.6869 30.0034 31.4361 28.7068 34.8839C27.4102 38.3284 19.3838 46.6506 13.3948 45.8967H13.3915Z" fill="#7CA304"/>
<g id="Group_3" style="mix-blend-mode:overlay" opacity="0.1">
<path id="Vector_4" d="M6.13507 31.3642C9.48865 33.8729 16.0951 34.786 15.6044 35.2735C15.1137 35.7642 2.55402 35.7122 1.35492 36.2289C0.155819 36.7455 2.30705 37.9999 5.8556 39.342C9.40741 40.6808 17.4599 38.1104 17.0017 38.9585C16.5435 39.8067 8.78349 43.1667 7.20094 43.7744C5.61838 44.3821 7.51939 44.3853 11.4352 44.9183C15.3509 45.4512 18.2268 44.1871 18.2268 44.1871C26.1656 39.8652 21.8858 33.7852 15.2567 32.3976C8.62751 31.0133 3.20719 24.5076 2.54102 24.0006C1.8716 23.497 2.78474 28.8523 6.13832 31.361L6.13507 31.3642Z" fill="#E6F5CF"/>
<path id="Vector_5" d="M13.4467 26.6848C14.8798 29.9442 19.9946 33.2328 19.9946 33.2328C24.6903 37.1388 20.8428 27.5947 18.5843 21.739C16.3258 15.8832 15.5914 15.9579 14.4216 18.1807C13.2517 20.4034 12.0136 23.4255 13.4467 26.6816V26.6848Z" fill="#E6F5CF"/>
<path id="Vector_6" d="M24.0534 33.4767C24.0989 35.29 27.4395 34.1949 28.5638 29.5545C29.6882 24.9108 28.2454 18.5903 27.4265 19.0583C26.6076 19.5295 23.8129 22.9643 23.1857 25.9377C22.5586 28.9078 24.0534 33.4767 24.0534 33.4767Z" fill="#E6F5CF"/>
</g>
<g id="Group_4" style="mix-blend-mode:overlay" opacity="0.44">
<path id="Vector_7" d="M21.8469 25.525C22.3864 25.031 25.7692 20.2736 26.7571 20.9008C27.6474 21.4695 28.9765 29.7364 28.8335 31.9299C29.0675 30.7113 29.5907 27.3935 29.0155 24.6281C28.2974 21.1673 28.1966 18.6001 27.7677 18.6293C27.3387 18.6586 25.2557 19.7927 23.397 22.5061C21.5415 25.2163 21.3075 26.0189 21.8502 25.525H21.8469Z" fill="#E6F5CF"/>
<path id="Vector_8" d="M28.8335 31.9295C28.775 32.235 28.7361 32.4105 28.7361 32.4105C28.788 32.3325 28.8205 32.1635 28.8335 31.9295Z" fill="#E6F5CF"/>
<path id="Vector_9" d="M13.7034 21.5116C14.5093 20.1338 14.8603 16.7899 16.2933 19.2564C17.7232 21.7196 21.0572 28.1213 21.0572 28.1213C21.0572 28.1213 19.7184 23.952 18.3666 20.4555C17.0148 16.9589 16.823 15.2074 15.5849 16.3967C14.3468 17.5861 12.1956 20.709 11.8512 22.363C11.5067 24.017 12.8943 22.8894 13.7002 21.5116H13.7034Z" fill="#E6F5CF"/>
<path id="Vector_10" d="M1.97241 25.5509C2.12189 26.815 4.30236 31.1012 6.56408 32.2093C8.8258 33.3207 11.8219 34.3151 11.8219 34.3151C11.8219 34.3151 6.19038 32.3946 4.57858 29.3497C2.96678 26.3081 3.04802 25.278 4.26662 26.3373C5.48522 27.3967 12.3321 29.5284 12.3321 29.5284C12.4231 29.2945 7.17825 27.7022 4.87429 25.6354C2.57033 23.5687 1.81968 24.2901 1.96916 25.5509H1.97241Z" fill="#E6F5CF"/>
<path id="Vector_11" d="M13.5345 40.983C13.4533 41.022 7.20104 43.7777 6.84358 43.9337C6.48612 44.0897 7.35702 44.0052 9.99568 44.7331C12.6344 45.4642 16.3876 44.7331 16.3876 44.7331C16.3876 44.7331 10.2687 43.8947 9.96969 43.4787C9.67397 43.0628 13.6125 40.9408 13.5312 40.9798L13.5345 40.983Z" fill="#E6F5CF"/>
<path id="Vector_12" d="M0.422379 35.9947C0.49712 36.1897 2.38513 38.055 3.78571 38.6951C5.18953 39.3353 1.21203 36.3099 1.21203 36.3099C1.21203 36.3099 7.57798 36.0435 9.50499 36.063C11.432 36.0825 13.9472 35.5203 13.9472 35.5203C13.9472 35.5203 6.37563 35.6308 3.47375 35.5885C0.57186 35.5463 0.347638 35.7998 0.422379 35.9947Z" fill="#E6F5CF"/>
</g>
</g>
<g id="Group_5">
<g id="Vector_13" style="mix-blend-mode:multiply" opacity="0.29">
<path d="M73.5447 28.5794C73.5447 28.5794 76.1216 19.3863 79.8002 12.078C83.4787 4.76967 81.62 8.74717 79.8002 9.03963C77.9804 9.33209 71.3187 16.7119 71.2083 17.0564C71.0978 17.3976 76.0047 8.32472 78.0487 7.09312C80.0894 5.86153 76.1314 5.40334 73.2555 6.66743C70.3796 7.93152 64.3939 16.7932 64.3939 16.7932C64.3939 16.7932 62.7561 12.4517 58.2326 11.4378C53.7125 10.424 51.9837 11.2006 53.5597 11.6685C55.1358 12.1365 62.0704 16.0945 60.5853 22.4637C59.1003 28.8329 65.1315 41.3926 73.5512 28.5827L73.5447 28.5794Z" fill="#3A1D1C"/>
</g>
<path id="Vector_14" d="M76.6415 31.124C76.6415 31.124 74.3766 21.1055 78.0584 13.7939C81.7369 6.4856 79.16 10.1381 77.337 10.4306C75.5172 10.7231 68.8555 18.1029 68.745 18.4473C68.6345 18.7886 73.5414 9.71569 75.5854 8.4841C77.6262 7.2525 73.6682 6.79431 70.7923 8.0584C67.9164 9.32249 62.7723 17.3522 62.7723 17.3522C62.7723 17.3522 61.7487 12.1366 57.2252 11.126C52.705 10.1121 51.8667 11.9352 53.4427 12.4031C55.0155 12.871 59.6072 17.4855 58.1221 23.8547C56.637 30.2239 68.2283 43.9339 76.6448 31.1273L76.6415 31.124Z" fill="#7CA304"/>
<g id="Group_6" style="mix-blend-mode:overlay" opacity="0.1">
<path id="Vector_15" d="M60.5789 15.1683C58.1027 10.5669 52.0617 10.8333 53.8685 12.2242C53.8685 12.2242 57.3683 14.4436 58.4309 17.2415C59.4935 20.0394 59.2303 23.653 59.7275 24.0397C60.2247 24.4264 63.0583 19.7697 60.5822 15.1683H60.5789Z" fill="#E6F5CF"/>
<path id="Vector_16" d="M68.4299 14.9928C70.2821 10.7748 75.4945 7.90866 75.0655 7.63894C74.6366 7.36923 71.7835 7.69744 68.5501 10.1281C65.3168 12.5588 62.7821 19.3017 62.7821 19.3017C60.8031 25.4532 66.5776 19.2075 68.4299 14.9928Z" fill="#E6F5CF"/>
<path id="Vector_17" d="M78.5068 10.3233C77.4279 10.8172 74.4708 12.8385 70.5551 16.907C66.6393 20.9755 65.4272 25.0537 65.4272 25.0537C63.5132 29.0442 68.4103 28.5243 71.5527 22.0706C74.695 15.6169 79.5857 9.82612 78.5068 10.3233Z" fill="#E6F5CF"/>
</g>
</g>
<g id="Group_7">
<g id="Vector_18" style="mix-blend-mode:multiply" opacity="0.29">
<path d="M44.0644 74.1746C44.0644 74.1746 40.0869 74.7596 35.0955 78.5063C30.1009 82.2564 29.5582 83.6049 30.676 80.3943C31.7939 77.1805 33.2107 73.216 28.7588 77.356C24.3068 81.496 21.1482 83.7154 21.8111 82.0646C22.4741 80.4139 28.7653 72.1274 25.0672 73.9569C21.3692 75.7832 11.081 84.9048 11.2922 83.072C11.5067 81.2392 18.3373 72.4751 15.091 73.6125C11.8447 74.7498 7.33422 77.2975 2.83029 75.4875C-1.67365 73.6774 3.07076 74.8863 7.04176 72.8195C11.0095 70.7528 6.63231 71.4482 2.87578 69.8462C-0.883998 68.2409 1.8814 69.1768 6.12212 65.9987C10.3628 62.8206 9.28397 62.0374 5.22523 62.1511C1.16974 62.2649 2.22261 60.9455 6.43408 57.4067C10.6456 53.8679 17.4372 53.4552 17.4372 53.4552C17.4372 53.4552 14.4638 51.7394 11.068 51.9442C7.67218 52.1489 11.3735 49.4517 16.4493 49.3965C21.5284 49.3445 34.894 52.0969 37.9616 50.5403C41.0292 48.9838 52.9 75.6337 44.0676 74.1779L44.0644 74.1746Z" fill="#3A1D1C"/>
</g>
<path id="Vector_19" d="M46.0304 75.6465C46.0304 75.6465 42.4266 74.2004 37.4352 77.9472C32.4406 81.6972 31.8979 83.0458 33.0158 79.8352C34.1337 76.6214 35.5505 72.6569 31.0985 76.7969C26.6466 80.9368 23.488 83.1563 24.1509 81.5055C24.8138 79.8547 31.105 71.5683 27.407 73.3978C23.709 75.224 13.4208 84.3457 13.632 82.5129C13.8464 80.6801 20.6771 71.916 17.4308 73.0533C14.1844 74.1907 9.67397 76.7384 5.17004 74.9283C0.666103 73.1183 5.41051 74.3272 9.38151 72.2604C13.3493 70.1937 8.97206 70.8891 5.21553 69.287C1.45575 67.6817 4.22116 68.6176 8.46187 65.4395C12.7026 62.2614 11.6237 61.4783 7.56499 61.592C3.5095 61.7057 4.56236 60.3864 8.77384 56.8476C12.9853 53.3088 19.777 52.8961 19.777 52.8961C19.777 52.8961 16.8036 51.1803 13.4078 51.385C10.0119 51.5898 13.7132 48.8926 18.7891 48.8374C23.8682 48.7854 37.2338 51.5378 40.3014 49.9812C43.369 48.4247 54.8661 77.1056 46.0337 75.6497L46.0304 75.6465Z" fill="#7CA304"/>
<g id="Group_8" style="mix-blend-mode:overlay" opacity="0.1">
<path id="Vector_20" d="M12.9365 50.8098C14.1486 50.8326 19.0458 51.5182 20.8558 52.6556C22.6658 53.7897 29.7564 55.2423 26.705 51.6937C26.705 51.6937 20.5438 48.7171 16.953 49.3475C13.3622 49.9779 11.7244 50.7903 12.9333 50.8131L12.9365 50.8098Z" fill="#E6F5CF"/>
<path id="Vector_21" d="M13.242 59.5935C17.0993 58.8169 24.3946 56.2855 19.5495 55.0344C14.7043 53.7865 7.08727 59.2621 5.67045 60.5034C5.13427 60.9746 9.38798 60.3669 13.242 59.5935Z" fill="#E6F5CF"/>
<path id="Vector_22" d="M24.5701 81.7849C24.7813 81.7264 29.4769 78.0024 31.365 76.1241C33.253 74.2458 34.595 73.7226 35.3067 74.704C36.0151 75.6854 32.8598 81.0147 32.9053 81.2649C32.9508 81.5152 33.2205 80.9855 34.5885 79.6759C35.9566 78.3663 40.1811 75.9486 41.13 75.4742C43.1707 74.4506 42.602 71.2367 40.896 70.5575C39.19 69.8751 32.1319 71.2497 30.6923 72.881C29.2527 74.5123 24.3588 81.8466 24.5733 81.7849H24.5701Z" fill="#E6F5CF"/>
<path id="Vector_23" d="M4.45508 68.5592C5.69317 69.0564 9.59268 70.4505 12.5368 70.5414C15.4809 70.6324 6.95076 74.2655 5.26423 74.0315C3.57769 73.7975 5.09525 75.1071 6.44058 75.2274C7.78591 75.3476 15.5167 73.2483 17.5217 72.2767C19.5267 71.3018 18.8833 74.5319 17.8661 76.0852C16.849 77.6385 12.8715 83.2116 15.208 81.3983C16.1439 80.6737 26.3443 72.7057 28.658 71.5716C30.9717 70.4375 34.5625 68.153 29.5549 67.2724C24.5473 66.3917 9.56669 67.4348 6.85328 67.7858C4.13987 68.1335 3.21048 68.0653 4.44858 68.5624L4.45508 68.5592Z" fill="#E6F5CF"/>
</g>
<g id="Group_9" style="mix-blend-mode:overlay" opacity="0.44">
<path id="Vector_24" d="M14.727 51.2031C17.2129 51.3559 19.9653 52.5192 19.9653 52.5192C21.1872 52.6395 17.122 51.0797 15.9618 50.6767C14.8017 50.2738 19.9199 49.7896 17.8531 49.6758C15.7864 49.5653 13.7001 50.264 13.0275 50.5955C12.3548 50.9269 12.2411 51.0504 14.727 51.2031Z" fill="#E6F5CF"/>
<path id="Vector_25" d="M7.47396 61.0819C8.87779 60.8674 10.4051 61.2411 10.4051 61.2411C10.4051 61.2411 10.873 60.8479 9.95015 60.4287C9.02727 60.0127 7.36998 60.5782 7.76318 59.6293C8.15638 58.6804 14.805 55.1286 14.805 55.1286C14.805 55.1286 11.7472 55.8565 9.69019 57.0036C7.63319 58.1507 5.54696 60.3215 5.6087 60.8544C5.67044 61.3841 6.07339 61.2963 7.47396 61.0851V61.0819Z" fill="#E6F5CF"/>
<path id="Vector_26" d="M4.71825 68.8584C5.85886 69.2289 10.3758 70.2947 10.3758 70.2947C10.3758 70.2947 10.1613 69.6773 9.34242 69.2906C8.52353 68.9039 5.66389 68.41 6.3528 67.7633C7.04496 67.1199 10.5415 64.5787 10.5415 64.5787C10.5415 64.5787 5.49816 67.5878 4.77675 67.8088C4.05534 68.033 3.5809 68.4847 4.7215 68.8552L4.71825 68.8584Z" fill="#E6F5CF"/>
<path id="Vector_27" d="M8.22781 73.8494C8.2993 73.6512 10.2003 72.3741 11.0322 71.8411C10.2101 72.3058 8.24081 73.3197 6.97022 73.6349C5.34543 74.0346 4.03909 74.1223 4.3153 74.3206C4.59477 74.5188 6.07008 75.1622 8.712 75.0582C11.3539 74.951 14.7595 73.8884 14.7595 73.8884C14.7595 73.8884 8.13357 74.1093 8.22781 73.8494Z" fill="#E6F5CF"/>
<path id="Vector_28" d="M11.0355 71.8415C11.263 71.7115 11.4092 71.6238 11.4222 71.6075C11.4352 71.5913 11.2825 71.6855 11.0355 71.8415Z" fill="#E6F5CF"/>
<path id="Vector_29" d="M17.8303 75.8675C16.5565 78.0545 14.415 81.2748 14.2135 81.7363C14.0121 82.1977 14.0348 82.7144 14.87 82.084C15.7051 81.4568 21.6356 76.8586 21.6356 76.8586C24.4725 74.8601 17.7654 79.0131 17.0244 79.6533C16.2803 80.2967 17.3072 78.7759 18.5453 76.7709C19.7833 74.7659 19.1172 72.5237 19.1172 72.5237C19.1172 72.5237 19.1074 73.6773 17.8336 75.8675H17.8303Z" fill="#E6F5CF"/>
<path id="Vector_30" d="M34.3351 79.9197C35.5765 78.4508 38.5693 76.7318 38.5693 76.7318C38.5693 76.7318 35.6382 78.0609 35.115 77.9796C34.5951 77.8984 34.9753 74.3823 34.9233 74.7073C34.8713 75.0323 32.9735 80.6476 32.8988 81.265C32.824 81.8824 33.0873 81.3885 34.3319 79.9197H34.3351Z" fill="#E6F5CF"/>
<path id="Vector_31" d="M25.2362 81.109C25.2362 81.109 28.71 77.0307 29.3924 75.0972C30.0748 73.167 30.0943 72.8225 30.0521 72.6113C30.0098 72.4001 27.3907 76.1956 26.7667 77.5539C26.1428 78.9123 23.8519 82.4673 25.2362 81.109Z" fill="#E6F5CF"/>
</g>
</g>
<g id="Group_10">
<path id="Vector_32" d="M56.7443 63.6979C56.7443 63.6979 59.8704 64.8418 63.6854 68.6568C67.5004 72.4718 68.5663 77.9636 67.9553 78.724C67.3444 79.4877 61.2417 76.2836 61.2417 76.2836C61.2417 76.2836 63.7601 81.5479 62.6163 85.4377C61.4724 89.3275 58.4958 93.0645 58.0408 91.9986C57.5826 90.9295 54.9147 84.1411 54.9147 84.1411C54.9147 84.1411 51.6359 88.0309 50.414 86.965C49.1922 85.8959 48.89 78.88 49.4229 75.143C49.9559 71.406 52.3963 67.2855 52.3963 67.2855C52.3963 67.2855 45.8354 73.2355 42.784 73.2355C39.7326 73.2355 39.8854 73.9991 39.7326 73.2355C39.5799 72.4718 40.4183 65.378 44.0026 61.7937L47.5869 58.2094C47.5869 58.2094 38.3581 62.2519 35.0012 60.5751C31.6444 58.8983 33.019 58.7456 34.0101 57.7512C35.0012 56.76 39.1217 51.421 39.2744 49.8937C39.4272 48.3696 54.9115 54.8525 56.5135 57.8259C58.1156 60.7993 56.741 63.6979 56.741 63.6979H56.7443Z" fill="#7CA304"/>
<g id="Group_11" style="mix-blend-mode:overlay" opacity="0.1">
<path id="Vector_33" d="M51.1843 86.0874C51.7627 85.509 54.5736 76.7481 55.0578 80.9368C55.542 85.1255 57.6964 91.1633 58.3854 91.5467C59.0743 91.9334 60.7608 89.5417 61.5895 82.8508C62.2296 77.6937 59.4155 74.5774 59.1198 74.2719C59.1783 74.3304 59.3505 74.4929 59.6819 74.7658C61.9307 76.6344 67.5395 78.2754 67.5395 78.2754C67.5395 78.2754 65.2907 74.8796 62.2004 72.2507C59.11 69.6185 54.3429 67.2918 54.3429 67.2918C52.7311 66.4501 49.7284 75.7212 49.8032 78.5419C49.8779 81.3625 50.6026 86.6659 51.181 86.0874H51.1843Z" fill="#E6F5CF"/>
<path id="Vector_34" d="M40.1194 72.8196C40.5094 73.0275 40.9968 72.5531 44.1229 71.484C47.249 70.4149 55.6817 62.8173 55.7565 62.6743C58.8111 56.6463 47.977 59.7757 44.1619 63.36C40.3469 66.9443 39.7295 72.6116 40.1194 72.8196Z" fill="#E6F5CF"/>
<path id="Vector_35" d="M33.7242 59.1028C33.0515 59.7268 36.4571 60.3864 40.4606 59.8145C44.4641 59.2426 49.8811 56.1912 49.8811 56.1912C53.8099 53.9425 51.2915 48.2979 49.7674 50.4329C48.2433 52.5679 34.3968 58.4789 33.7242 59.1028Z" fill="#E6F5CF"/>
</g>
<g id="Group_12" style="mix-blend-mode:overlay" opacity="0.44">
<path id="Vector_36" d="M64.5173 72.4069C66.4085 75.6695 66.2395 76.7256 64.852 76.4461C63.4611 76.1666 60.3968 75.1398 61.0694 75.6825C61.0694 75.6825 65.4174 77.9897 66.688 78.3569C67.9586 78.7241 68.0951 78.3926 67.4289 76.6898C66.7627 74.9838 65.1314 70.4246 61.4431 68.0362C57.7549 65.6445 56.8645 65.1635 56.8645 65.1635C56.8645 65.1635 62.6292 69.1475 64.5173 72.4101V72.4069Z" fill="#E6F5CF"/>
<path id="Vector_37" d="M60.712 76.7483C60.2051 76.1601 60.4943 78.9873 60.8095 82.0061C61.1247 85.0283 59.0677 90.754 58.3268 88.4923C57.5859 86.2306 54.8628 80.6153 55.5744 83.8259C56.2861 87.0365 58.5933 91.7582 58.5933 91.7582C58.5933 91.7582 60.4748 90.5656 61.3847 85.6944C62.2913 80.82 60.712 76.7483 60.712 76.7483Z" fill="#E6F5CF"/>
<path id="Vector_38" d="M51.2492 83.4523C51.3045 82.1363 50.3978 73.1869 50.0664 74.6654C49.7349 76.144 49.9136 85.0836 50.1574 85.9155C50.3978 86.7507 50.9373 86.8059 52.0291 85.6751C53.121 84.5442 54.0569 83.1826 54.0569 83.1826C54.5086 81.9673 51.194 84.7684 51.2492 83.4523Z" fill="#E6F5CF"/>
<path id="Vector_39" d="M39.9731 72.6764C39.9179 73.3133 40.2428 73.297 41.3347 73.0923C42.4266 72.8876 46.8558 70.9411 46.8558 70.9411C49.4392 68.9816 42.2608 71.721 41.5914 71.5325C40.9253 71.3473 41.9619 68.2699 42.4103 67.0091C42.8588 65.745 44.7078 61.0851 42.3973 65.1146C40.0901 69.1441 40.0251 72.0394 39.9699 72.6731L39.9731 72.6764Z" fill="#E6F5CF"/>
<path id="Vector_40" d="M39.7587 51.0245C39.2387 52.1749 34.6243 57.7512 33.6982 58.6773C32.7721 59.6034 33.3635 59.4182 35.8299 60.2534C38.2931 61.0885 43.6517 59.4377 43.6517 59.4377C47.21 58.4368 42.7451 59.1972 40.7336 59.0575C38.7221 58.9178 35.9989 58.0826 36.9998 56.6398C38.0006 55.1938 40.2786 49.8774 39.7619 51.0245H39.7587Z" fill="#E6F5CF"/>
</g>
</g>
<g id="Group_13">
<g id="Vector_41" style="mix-blend-mode:multiply" opacity="0.29">
<path d="M63.5944 65.9498C63.5944 65.9498 65.4921 70.067 65.9926 74.6782C66.4963 79.2894 65.2549 82.3992 65.7034 83.1142C66.1518 83.8291 69.5379 79.6436 70.5518 77.0212C71.5656 74.3988 70.4315 72.8487 70.4315 72.8487C70.4315 72.8487 72.0596 76.706 73.3952 77.3916C74.734 78.0773 76.2483 80.066 76.44 78.594C76.6317 77.1219 75.8843 71.7796 75.8843 71.7796C75.8843 71.7796 77.6034 74.597 79.1762 75.4029C80.749 76.212 81.7596 76.9724 81.9416 76.5792C82.1203 76.1893 82.0586 69.1442 80.6352 66.1155C79.2087 63.0869 77.8503 62.0276 77.8503 62.0276C77.8503 62.0276 81.6946 63.3956 82.234 64.7605C82.7735 66.1253 84.0798 62.4435 83.8783 59.0769C83.6801 55.7103 82.9392 52.672 82.9392 52.672C82.9392 52.672 85.7144 53.6144 86.634 55.4146C87.5536 57.2182 88.2425 52.347 87.8103 49.9033C87.3814 47.4564 85.9678 41.6559 82.1691 40.1903C78.3703 38.7247 63.3897 60.8934 63.5879 65.9498H63.5944Z" fill="#3A1D1C"/>
</g>
<path id="Vector_42" d="M63.1265 66.0538C63.1265 66.0538 65.541 69.8493 66.5808 74.3143C67.6207 78.7792 66.7043 81.9996 67.2437 82.643C67.7864 83.2864 70.7858 78.7272 71.5267 76.0171C72.2676 73.3069 70.9288 71.9323 70.9288 71.9323C70.9288 71.9323 73.0378 75.5101 74.4871 76.0073C75.9364 76.5077 77.7204 78.2593 77.7497 76.7872C77.7789 75.3151 76.4043 70.1645 76.4043 70.1645C76.4043 70.1645 78.4873 72.7057 80.1934 73.2939C81.8994 73.8821 83.0238 74.4963 83.1635 74.0868C83.3032 73.6774 82.4388 66.7655 80.6321 63.9741C78.8253 61.1859 77.311 60.3215 77.311 60.3215C77.311 60.3215 81.412 61.1632 82.1171 62.4338C82.8255 63.7044 83.7484 59.9153 83.1602 56.6332C82.5721 53.3512 81.4672 50.4623 81.4672 50.4623C81.4672 50.4623 84.4243 51.0244 85.5714 52.672C86.7218 54.3228 86.8713 49.4484 86.1531 47.0989C85.435 44.7527 83.326 39.2349 79.2607 38.2925C75.1955 37.3502 62.3466 61.1047 63.1265 66.0506V66.0538Z" fill="#7CA304"/>
<g id="Group_14" style="mix-blend-mode:overlay" opacity="0.1">
<path id="Vector_43" d="M67.7083 81.9963C68.3778 81.8825 70.1748 78.1715 70.8767 75.6726C71.5786 73.1736 69.9538 69.1961 69.9538 69.1961C69.9538 69.1961 74.0678 74.8894 75.4456 75.8773C76.8234 76.8652 77.8536 77.7523 77.6553 77.2194C77.4571 76.6864 76.8299 70.1938 75.5074 67.7988C74.1848 65.4039 68.459 55.5641 67.1104 68.218C67.1104 68.218 68.6052 74.5515 67.9683 77.9245C67.3314 81.2976 67.0422 82.1133 67.7116 81.9995L67.7083 81.9963Z" fill="#E6F5CF"/>
<path id="Vector_44" d="M83.1699 73.6028C83.1277 73.1771 81.9903 66.3465 79.6961 63.2464C77.3986 60.1463 74.4285 57.9691 73.1644 58.0048C71.9003 58.0405 76.9502 66.4505 79.1372 70.285C81.3242 74.1195 83.2837 74.6947 83.1732 73.6028H83.1699Z" fill="#E6F5CF"/>
<path id="Vector_45" d="M82.7345 61.6833C82.8385 60.9684 83.6151 56.211 81.1909 50.8849C78.7667 45.5588 75.9331 45.0551 75.2247 45.4516C74.5163 45.848 76.5668 51.5966 78.952 56.6594C81.3404 61.7223 82.5103 63.1976 82.7345 61.6833Z" fill="#E6F5CF"/>
<path id="Vector_46" d="M79.6083 45.2921C83.0334 46.9851 85.9905 52.321 85.9905 52.321C86.452 53.0944 87.2611 50.4037 84.2975 44.2522C81.3371 38.1007 75.2051 41.7663 74.4837 42.9296C73.7623 44.093 76.1865 43.5991 79.6083 45.2921Z" fill="#E6F5CF"/>
</g>
</g>
<g id="Group_15">
<g id="Vector_47" style="mix-blend-mode:multiply" opacity="0.29">
<path d="M25.3078 25.798C22.5456 22.6361 20.4821 18.0834 20.4821 18.0834L31.2675 22.2299C31.2675 22.2299 24.1899 18.4506 23.4653 14.1124C22.7406 9.77422 22.7146 7.39552 23.384 7.05106C24.0534 6.70661 35.9275 17.2808 35.9275 17.2808C35.9275 17.2808 31.6088 10.5899 32.2489 6.48564C32.8891 2.3814 37.822 -0.250769 38.5336 0.0189476C39.2485 0.288664 38.7968 5.32553 40.2364 8.47764C41.676 11.6297 42.9466 12.9263 42.9466 12.9263C42.9466 12.9263 46.0694 7.12256 48.7828 6.43364C51.4963 5.74473 59.2823 5.65374 59.8152 6.22242C60.3514 6.7911 56.4096 11.9352 55.9092 13.5925C55.4088 15.2498 55.3633 17.4725 55.3633 17.4725C55.3633 17.4725 59.1036 15.8445 62.6294 16.5074C66.1584 17.1703 68.0562 17.9697 68.0562 17.9697C68.0562 17.9697 62.8503 22.5809 60.6179 24.7548C58.3854 26.9288 55.9027 29.2393 51.1226 30.6561C46.3424 32.0697 30.1724 31.3743 25.3078 25.8045V25.798Z" fill="#3A1D1C"/>
</g>
<path id="Vector_48" d="M23.9364 28.2479C21.015 25.0633 18.7208 20.3709 18.7208 20.3709L29.7044 24.1502C29.7044 24.1502 22.4416 20.5529 21.4959 16.0165C20.5503 11.48 20.4008 8.97135 21.0508 8.57165C21.7007 8.17195 34.1044 18.6746 34.1044 18.6746C34.1044 18.6746 29.4477 11.8537 29.8766 7.48629C30.3056 3.11884 35.0955 0.0707192 35.8202 0.317688C36.5481 0.564657 36.3563 5.90374 37.9584 9.14683C39.5604 12.3899 40.8928 13.693 40.8928 13.693C40.8928 13.693 43.7102 7.39855 46.3846 6.52116C49.059 5.64702 56.8288 5.12058 57.3909 5.68926C57.9531 6.25794 54.2843 11.9025 53.8684 13.68C53.4557 15.4575 53.5239 17.8037 53.5239 17.8037C53.5239 17.8037 57.1765 15.88 60.7315 16.3869C64.2898 16.8906 66.2266 17.6283 66.2266 17.6283C66.2266 17.6283 61.2645 22.7789 59.149 25.1966C57.0335 27.611 54.6743 30.1879 49.9721 31.9427C45.27 33.6975 29.087 33.8535 23.9396 28.2447L23.9364 28.2479Z" fill="#7CA304"/>
<g id="Group_16" style="mix-blend-mode:overlay" opacity="0.1">
<path id="Vector_49" d="M31.235 10.255C32.0474 15.1099 37.6497 21.3654 36.6781 21.3589C35.7065 21.3524 23.384 10.8529 21.6877 10.2778C19.9915 9.70259 20.8623 12.5265 23.0298 16.5852C25.1973 20.644 35.687 25.2389 34.3904 25.5541C33.0938 25.8693 22.1102 22.1713 19.946 21.3524C17.7817 20.5335 19.6502 22.1193 22.9811 25.8173C26.3087 29.5153 30.3966 30.8737 30.3966 30.8737C42.5176 33.9315 44.3406 25.3656 39.1868 18.704C34.0329 12.0423 35.1605 2.17653 35.0046 1.2049C34.8486 0.233276 30.4226 5.40013 31.235 10.255Z" fill="#E6F5CF"/>
<path id="Vector_50" d="M43.0895 12.4939C41.2632 16.3675 43.031 23.3346 43.031 23.3346C43.7751 30.4577 49.4717 19.4058 53.0657 12.7084C56.6598 6.01101 55.8636 5.46183 52.5003 6.31322C49.1402 7.16786 44.9158 8.62043 43.0862 12.4939H43.0895Z" fill="#E6F5CF"/>
<path id="Vector_51" d="M46.7908 26.9126C45.0328 28.4399 49.4132 30.3247 55.1325 27.4423C60.855 24.5599 65.7164 18.1582 64.4458 17.8625C63.172 17.5668 57.001 18.0672 53.433 19.9878C49.8616 21.9115 46.794 26.9094 46.794 26.9094L46.7908 26.9126Z" fill="#E6F5CF"/>
</g>
<g id="Group_17" style="mix-blend-mode:overlay" opacity="0.44">
<path id="Vector_52" d="M60.2994 16.9656C54.7361 16.9559 51.8212 19.8415 51.8212 19.8415C51.8212 19.8415 53.9204 18.5222 58.9736 18.0965C64.0267 17.6708 65.4662 17.9145 63.263 19.874C61.0598 21.8335 56.9328 25.0571 56.9328 25.0571C57.716 26.6104 64.8878 19.0291 65.5832 18.3012C66.2786 17.5733 65.8627 16.9754 60.2994 16.9656Z" fill="#E6F5CF"/>
<path id="Vector_53" d="M55.2072 6.28733C55.2072 6.28733 55.1227 9.27045 53.0885 11.3729C51.0542 13.4754 50.4986 19.0842 50.4986 19.0842C50.4986 19.0842 54.9343 12.1268 55.6297 9.38419C56.3251 6.64478 55.2105 6.28408 55.2105 6.28408L55.2072 6.28733Z" fill="#E6F5CF"/>
<path id="Vector_54" d="M34.5821 0.915847C34.5821 0.915847 30.8873 4.86735 30.7996 7.59376C30.7118 10.3234 32.3724 14.8403 32.3724 14.8403C32.3724 14.8403 30.6176 7.2948 32.2749 4.94859C33.9322 2.60239 34.9623 1.21481 35.206 1.78349C35.4497 2.35542 37.2078 8.75711 37.2078 8.75711C37.2078 8.75711 36.0184 2.34892 35.7617 1.34479C35.505 0.340669 34.5821 0.919096 34.5821 0.919096V0.915847Z" fill="#E6F5CF"/>
<path id="Vector_55" d="M30.5819 24.7968C28.8271 24.3354 20.5276 20.9948 19.7282 21.2743C18.9321 21.5505 19.7282 21.2743 21.6585 24.3744C23.5887 27.4745 26.8676 29.9767 26.8676 29.9767C25.9804 29.1643 22.5911 23.1558 24.1737 23.6919C25.7562 24.2314 32.3366 25.2583 30.5819 24.8001V24.7968Z" fill="#E6F5CF"/>
<path id="Vector_56" d="M22.1459 13.5631C20.7031 9.31916 21.3627 8.12981 20.82 8.87396C20.82 8.87396 20.95 16.3903 23.6017 19.2012C26.2534 22.0121 33.136 24.381 33.136 24.381C33.136 24.381 23.5854 17.8071 22.1426 13.5631H22.1459Z" fill="#E6F5CF"/>
</g>
</g>
<g id="Group_18">
<g id="Vector_57" style="mix-blend-mode:multiply" opacity="0.29">
<path d="M50.0826 45.432C50.0826 45.432 54.2063 49.182 59.5909 49.4842C64.9755 49.7864 69.7816 46.9235 69.9441 45.9584C70.1066 44.9965 63.6496 42.5788 63.6496 42.5788C63.6496 42.5788 69.2519 40.9475 71.3902 37.503C73.5284 34.0584 74.3311 29.3497 73.2327 29.7202C72.1311 30.0906 65.2907 32.6253 65.2907 32.6253C65.2907 32.6253 66.0056 27.5885 64.397 27.3902C62.7885 27.192 57.3519 31.6407 54.9212 34.5296C52.4906 37.4185 51.0445 41.9842 51.0445 41.9842C51.0445 41.9842 51.1095 33.129 49.0752 30.8543C47.041 28.5796 47.7137 28.1864 47.041 28.5796C46.3716 28.9728 41.6402 34.3281 41.3574 39.3877L41.0747 44.4506C41.0747 44.4506 37.9389 34.874 34.4521 33.4897C30.9653 32.1054 31.7647 33.2298 31.6867 34.6303C31.6087 36.0309 30.3706 42.6601 29.3372 43.7909C28.3006 44.9218 40.0479 48.7758 43.3332 47.9862C46.6185 47.1997 50.0859 45.432 50.0859 45.432H50.0826Z" fill="#3A1D1C"/>
</g>
<path id="Vector_58" d="M49.514 47.5145C49.514 47.5145 52.4516 49.0841 57.8362 49.3863C63.2207 49.6885 68.0269 46.8256 68.1894 45.8605C68.3518 44.8986 61.8949 42.4809 61.8949 42.4809C61.8949 42.4809 67.4972 40.8496 69.6354 37.405C71.7737 33.9605 72.5796 29.2518 71.4779 29.6223C70.3763 29.9927 63.5359 32.5274 63.5359 32.5274C63.5359 32.5274 64.2509 27.4905 62.6423 27.2923C61.0338 27.0941 55.5972 31.5428 53.1665 34.4317C50.7358 37.3206 49.2897 41.8862 49.2897 41.8862C49.2897 41.8862 49.3547 33.0311 47.3205 30.7564C45.2862 28.4817 45.9589 28.0885 45.2862 28.4817C44.6168 28.8749 39.8854 34.2302 39.6027 39.2898L39.32 44.3527C39.32 44.3527 36.1841 34.7761 32.6973 33.3918C29.2105 32.0075 30.0099 33.1318 29.9319 34.5324C29.8539 35.933 28.6158 42.5621 27.5825 43.693C26.5458 44.8239 41.6987 52.0477 44.984 51.2613C48.2694 50.4749 49.5172 47.5178 49.5172 47.5178L49.514 47.5145Z" fill="#7CA304"/>
<g id="Group_19" style="mix-blend-mode:overlay" opacity="0.1">
<path id="Vector_59" d="M62.5058 28.4496C62.4603 29.2652 57.8004 37.2007 61.245 34.77C64.6896 32.3426 70.6266 29.9249 71.374 30.1816C72.1214 30.4383 71.4617 33.2882 67.026 38.3673C63.6074 42.2799 59.409 42.2604 58.9865 42.2441C59.071 42.2506 59.305 42.2701 59.7274 42.3318C62.6196 42.764 67.5784 45.8512 67.5784 45.8512C67.5784 45.8512 63.549 46.4361 59.526 45.8869C55.5062 45.3377 50.5928 43.3327 50.5928 43.3327C48.8933 42.6926 53.8034 34.2761 55.9579 32.4498C58.1124 30.6268 62.5481 27.6339 62.5026 28.4496H62.5058Z" fill="#E6F5CF"/>
<path id="Vector_60" d="M45.2374 29.0409C45.6534 29.1936 45.6241 29.8728 46.911 32.9177C48.1978 35.9625 48.1523 47.3101 48.0938 47.4628C45.6339 53.7573 40.7465 43.5926 40.8797 38.3607C41.0097 33.1289 44.8248 28.8914 45.2374 29.0441V29.0409Z" fill="#E6F5CF"/>
<path id="Vector_61" d="M30.7508 33.4117C30.7671 32.4953 33.5292 34.5946 35.7714 37.9612C38.0136 41.3277 39.346 47.398 39.346 47.398C40.2851 51.8272 34.4001 53.7119 34.9753 51.1513C35.5505 48.5906 30.7346 34.3281 30.7508 33.4117Z" fill="#E6F5CF"/>
</g>
<g id="Group_20" style="mix-blend-mode:overlay" opacity="0.44">
<path id="Vector_62" d="M67.4128 45.4252C66.9903 45.0093 60.3709 42.2959 60.3709 42.2959C60.3709 42.2959 65.1316 44.9573 65.0243 45.422C64.9203 45.8899 58.4601 48.7561 58.4601 48.7561C58.4601 48.7561 63.2435 48.1386 65.2778 47.011C67.312 45.8834 67.8385 45.8412 67.4128 45.4252Z" fill="#E6F5CF"/>
<path id="Vector_63" d="M69.8889 30.4708C68.2316 31.1662 64.0071 33.0834 64.0071 33.0834C64.0071 33.0834 68.2998 31.9591 69.5997 31.7154C70.8995 31.4749 70.4706 31.6601 70.0384 33.2622C69.6062 34.8642 63.7147 40.7297 63.7147 40.7297C63.7147 40.7297 66.0056 40.1481 68.3193 37.9708C70.6363 35.7904 71.7834 30.6852 71.7996 30.396C71.8159 30.1068 71.5462 29.7786 69.8889 30.474V30.4708Z" fill="#E6F5CF"/>
<path id="Vector_64" d="M62.0216 29.6616C62.808 30.0743 62.886 33.0704 62.9608 31.7348C63.0355 30.3993 62.9803 27.6664 62.5578 27.6696C62.1386 27.6696 57.1505 30.9355 57.1505 30.9355C57.1505 30.9355 61.2352 29.2489 62.0216 29.6616Z" fill="#E6F5CF"/>
<path id="Vector_65" d="M45.0718 29.6029C45.0718 29.6029 47.7982 35.2929 48.0809 39.1437C48.3636 42.9912 48.864 38.3865 48.3181 34.9062C47.7722 31.4259 44.997 28.1308 45.0718 29.6061V29.6029Z" fill="#E6F5CF"/>
<path id="Vector_66" d="M32.2522 33.506C31.2903 32.8496 30.3609 32.7684 30.2049 34.4549C30.0489 36.1414 29.0903 41.6755 29.0903 41.6755C29.0903 41.6755 30.7638 37.1228 30.8353 36.2877C30.9101 35.4525 31.5632 34.5686 33.2888 36.5574C35.0143 38.5429 38.5434 43.492 38.5434 43.492C38.5434 43.492 38.0917 42.1792 37.0161 39.8102C35.9404 37.4413 33.2108 34.1624 32.2522 33.506Z" fill="#E6F5CF"/>
</g>
</g>
</g>
</svg>
